<svg width="144" height="50" viewBox="0 0 144 50" fill="none" xmlns="http://www.w3.org/2000/svg">
<path d="M122.037 45.5489C122.179 45.3078 122.452 45.158 122.75 45.158C123.048 45.158 123.321 45.3078 123.463 45.5489L123.801 46.1197C124.179 45.4677 124.376 44.7395 124.375 44C124.375 41.5147 122.192 39.5 119.5 39.5C116.808 39.5 114.625 41.5147 114.625 44C114.625 46.4853 116.808 48.5 119.5 48.5C119.784 48.5 120.062 48.4764 120.332 48.4333L122.037 45.5489Z" fill="#FA6450"/>
<path d="M115.438 44C115.438 41.6411 117.404 39.7076 119.906 39.5167C119.771 39.506 119.636 39.5004 119.5 39.5C116.808 39.5 114.625 41.5147 114.625 44C114.625 46.4853 116.808 48.5 119.5 48.5C119.637 48.5 119.772 48.4934 119.906 48.4833C117.404 48.2924 115.438 46.3589 115.438 44Z" fill="#DC4632"/>
<path d="M119.263 42.1372C118.356 42.2321 117.614 42.8989 117.489 43.733C117.441 44.0404 117.477 44.354 117.593 44.6453C117.709 44.9367 117.902 45.1968 118.155 45.402C118.238 45.47 118.281 45.5709 118.281 45.6737V45.6874C118.281 45.7371 118.303 45.7848 118.341 45.8199C118.379 45.8551 118.431 45.8749 118.484 45.8749H118.688C118.741 45.8749 118.793 45.8551 118.831 45.8199C118.869 45.7848 118.891 45.7371 118.891 45.6874C118.891 45.6376 118.912 45.5899 118.95 45.5548C118.988 45.5196 119.04 45.4999 119.094 45.4999C119.148 45.4999 119.199 45.5196 119.237 45.5548C119.275 45.5899 119.297 45.6376 119.297 45.6874C119.297 45.7371 119.318 45.7848 119.356 45.8199C119.394 45.8551 119.446 45.8749 119.5 45.8749C119.554 45.8749 119.606 45.8551 119.644 45.8199C119.682 45.7848 119.703 45.7371 119.703 45.6874C119.703 45.6376 119.725 45.5899 119.763 45.5548C119.801 45.5196 119.852 45.4999 119.906 45.4999C119.96 45.4999 120.012 45.5196 120.05 45.5548C120.088 45.5899 120.109 45.6376 120.109 45.6874C120.109 45.7371 120.131 45.7848 120.169 45.8199C120.207 45.8551 120.259 45.8749 120.313 45.8749H120.516C120.57 45.8749 120.621 45.8551 120.659 45.8199C120.697 45.7848 120.719 45.7371 120.719 45.6874V45.6735C120.719 45.5704 120.763 45.4697 120.846 45.4012C121.062 45.2259 121.234 45.0103 121.352 44.7687C121.47 44.527 121.531 44.265 121.531 43.9999C121.531 42.8921 120.491 42.0088 119.263 42.1372ZM118.688 44.5624C118.526 44.5624 118.371 44.5031 118.257 44.3976C118.142 44.2921 118.078 44.149 118.078 43.9999C118.078 43.8507 118.142 43.7076 118.257 43.6021C118.371 43.4966 118.526 43.4374 118.688 43.4374C118.849 43.4374 119.004 43.4966 119.118 43.6021C119.233 43.7076 119.297 43.8507 119.297 43.9999C119.297 44.149 119.233 44.2921 119.118 44.3976C119.004 44.5031 118.849 44.5624 118.688 44.5624ZM119.5 44.9374C119.446 44.9374 119.394 44.9176 119.356 44.8824C119.318 44.8473 119.297 44.7996 119.297 44.7499C119.297 44.7001 119.318 44.6524 119.356 44.6173C119.394 44.5821 119.446 44.5624 119.5 44.5624C119.554 44.5624 119.606 44.5821 119.644 44.6173C119.682 44.6524 119.703 44.7001 119.703 44.7499C119.703 44.7996 119.682 44.8473 119.644 44.8824C119.606 44.9176 119.554 44.9374 119.5 44.9374ZM120.313 44.5624C120.151 44.5624 119.996 44.5031 119.882 44.3976C119.767 44.2921 119.703 44.149 119.703 43.9999C119.703 43.8507 119.767 43.7076 119.882 43.6021C119.996 43.4966 120.151 43.4374 120.313 43.4374C120.474 43.4374 120.629 43.4966 120.743 43.6021C120.858 43.7076 120.922 43.8507 120.922 43.9999C120.922 44.149 120.858 44.2921 120.743 44.3976C120.629 44.5031 120.474 44.5624 120.313 44.5624ZM117.637 45.4545L117.306 45.7601C117.288 45.6962 117.252 45.6377 117.202 45.5908C117.145 45.5383 117.073 45.5026 116.994 45.4881C116.915 45.4737 116.834 45.4811 116.759 45.5095C116.685 45.5378 116.622 45.5859 116.577 45.6476C116.532 45.7092 116.509 45.7818 116.509 45.8559C116.509 45.9301 116.532 46.0026 116.577 46.0643C116.622 46.1259 116.685 46.174 116.759 46.2024C116.834 46.2308 116.915 46.2382 116.994 46.2237C117.073 46.2092 117.145 46.1735 117.202 46.121C117.145 46.1735 117.107 46.2403 117.091 46.3131C117.075 46.3858 117.083 46.4612 117.114 46.5297C117.145 46.5983 117.197 46.6568 117.264 46.698C117.33 46.7393 117.409 46.7613 117.489 46.7613C117.57 46.7613 117.648 46.7393 117.715 46.698C117.782 46.6568 117.834 46.5983 117.865 46.5297C117.895 46.4612 117.903 46.3858 117.888 46.3131C117.872 46.2403 117.833 46.1735 117.776 46.121C117.726 46.0746 117.662 46.0415 117.593 46.0252L117.883 45.7577C117.879 45.7346 117.875 45.7115 117.875 45.6874C117.789 45.615 117.71 45.5362 117.637 45.4545ZM121.36 42.5484L121.694 42.2394C121.712 42.3013 121.746 42.3602 121.798 42.4087C121.855 42.4612 121.927 42.4969 122.006 42.5114C122.085 42.5259 122.167 42.5185 122.241 42.4901C122.315 42.4617 122.379 42.4136 122.423 42.352C122.468 42.2903 122.492 42.2178 122.492 42.1436C122.492 42.0694 122.468 41.9969 122.423 41.9353C122.379 41.8736 122.315 41.8255 122.241 41.7971C122.167 41.7688 122.085 41.7613 122.006 41.7758C121.927 41.7903 121.855 41.826 121.798 41.8785C121.855 41.826 121.894 41.7592 121.909 41.6865C121.925 41.6137 121.917 41.5383 121.886 41.4698C121.856 41.4013 121.803 41.3427 121.737 41.3015C121.67 41.2603 121.591 41.2383 121.511 41.2383C121.431 41.2383 121.352 41.2603 121.285 41.3015C121.218 41.3427 121.166 41.4013 121.136 41.4698C121.105 41.5383 121.097 41.6137 121.113 41.6865C121.128 41.7592 121.167 41.826 121.224 41.8785C121.276 41.927 121.34 41.958 121.407 41.9743L121.072 42.2833C121.176 42.3643 121.272 42.453 121.36 42.5484ZM117.929 42.285L117.593 41.9743C117.66 41.958 117.724 41.927 117.776 41.8785C117.833 41.826 117.872 41.7592 117.888 41.6865C117.903 41.6137 117.895 41.5383 117.864 41.4698C117.834 41.4013 117.782 41.3427 117.715 41.3015C117.648 41.2603 117.569 41.2383 117.489 41.2383C117.409 41.2383 117.33 41.2603 117.263 41.3015C117.197 41.3427 117.144 41.4013 117.114 41.4698C117.083 41.5383 117.075 41.6137 117.091 41.6865C117.106 41.7592 117.145 41.826 117.202 41.8785C117.145 41.826 117.073 41.7903 116.994 41.7758C116.915 41.7613 116.833 41.7688 116.759 41.7971C116.685 41.8255 116.621 41.8736 116.577 41.9353C116.532 41.9969 116.508 42.0694 116.508 42.1436C116.508 42.2178 116.532 42.2903 116.577 42.352C116.621 42.4136 116.685 42.4617 116.759 42.4901C116.833 42.5185 116.915 42.5259 116.994 42.5114C117.073 42.4969 117.145 42.4612 117.202 42.4087C117.254 42.3602 117.288 42.3013 117.306 42.2394L117.642 42.5501C117.73 42.4547 117.826 42.366 117.929 42.285ZM122.083 45.4811C121.994 45.4811 121.908 45.5086 121.837 45.5591C121.767 45.6096 121.716 45.6803 121.694 45.7601L121.358 45.4492C121.283 45.531 121.203 45.6097 121.115 45.6817C121.116 45.7055 121.112 45.728 121.11 45.7509L121.407 46.0252C121.34 46.0415 121.276 46.0725 121.224 46.121C121.148 46.1914 121.105 46.2867 121.105 46.3862C121.105 46.4856 121.148 46.581 121.224 46.6513C121.259 46.6835 121.299 46.7075 121.341 46.7255L122.037 45.5486C122.051 45.5252 122.067 45.503 122.083 45.4811Z" fill="#F0F0F0"/>
<path d="M122.393 45.7287L120.64 48.6955C120.493 48.9454 120.689 49.2501 120.997 49.2501H124.503C124.812 49.2501 125.008 48.9454 124.86 48.6955L123.107 45.7287C122.953 45.468 122.547 45.468 122.393 45.7287Z" fill="#FAB400"/>
<path d="M120.918 48.6951L122.671 45.7283C122.718 45.6486 122.796 45.5879 122.889 45.558C122.711 45.499 122.497 45.5537 122.394 45.7283L120.64 48.6951C120.492 48.945 120.689 49.2497 120.997 49.2497H121.274C120.966 49.2497 120.77 48.945 120.918 48.6951Z" fill="#DC9600"/>
<path d="M122.75 47.75C122.696 47.75 122.644 47.7302 122.606 47.6951C122.568 47.6599 122.547 47.6122 122.547 47.5625V46.8125C122.547 46.7628 122.568 46.7151 122.606 46.6799C122.644 46.6448 122.696 46.625 122.75 46.625C122.804 46.625 122.856 46.6448 122.894 46.6799C122.932 46.7151 122.953 46.7628 122.953 46.8125V47.5625C122.953 47.6122 122.932 47.6599 122.894 47.6951C122.856 47.7302 122.804 47.75 122.75 47.75ZM122.75 48.5C122.696 48.5 122.644 48.4802 122.606 48.4451C122.568 48.4099 122.547 48.3622 122.547 48.3125C122.547 48.2628 122.568 48.2151 122.606 48.1799C122.644 48.1448 122.696 48.125 122.75 48.125C122.804 48.125 122.856 48.1448 122.894 48.1799C122.932 48.2151 122.953 48.2628 122.953 48.3125C122.953 48.3622 122.932 48.4099 122.894 48.4451C122.856 48.4802 122.804 48.5 122.75 48.5Z" fill="#F0F0F0"/>
<path d="M138.512 19.9525C138.709 19.5707 139.088 19.3335 139.5 19.3335C139.912 19.3335 140.291 19.5707 140.488 19.9525L140.955 20.8562C141.478 19.8239 141.751 18.6709 141.75 17.5C141.75 13.5649 138.728 10.375 135 10.375C131.272 10.375 128.25 13.5649 128.25 17.5C128.25 21.4351 131.272 24.625 135 24.625C135.393 24.625 135.778 24.5876 136.153 24.5193L138.512 19.9525Z" fill="#FA6450"/>
<path d="M129.375 17.5C129.375 13.765 132.098 10.7036 135.562 10.4014C135.375 10.3845 135.188 10.3757 135 10.375C131.272 10.375 128.25 13.5649 128.25 17.5C128.25 21.4351 131.272 24.625 135 24.625C135.19 24.625 135.377 24.6146 135.562 24.5986C132.098 24.2964 129.375 21.235 129.375 17.5Z" fill="#DC4632"/>
<path d="M134.672 14.5513C133.416 14.7015 132.389 15.7572 132.215 17.078C132.149 17.5646 132.199 18.0611 132.36 18.5224C132.521 18.9838 132.788 19.3955 133.138 19.7205C133.253 19.8282 133.313 19.9879 133.313 20.1506V20.1723C133.313 20.251 133.342 20.3266 133.395 20.3822C133.448 20.4379 133.519 20.4692 133.594 20.4692H133.875C133.95 20.4692 134.021 20.4379 134.074 20.3822C134.127 20.3266 134.156 20.251 134.156 20.1723C134.156 20.0936 134.186 20.0181 134.239 19.9624C134.291 19.9067 134.363 19.8754 134.438 19.8754C134.512 19.8754 134.584 19.9067 134.636 19.9624C134.689 20.0181 134.719 20.0936 134.719 20.1723C134.719 20.251 134.748 20.3266 134.801 20.3822C134.854 20.4379 134.925 20.4692 135 20.4692C135.075 20.4692 135.146 20.4379 135.199 20.3822C135.252 20.3266 135.281 20.251 135.281 20.1723C135.281 20.0936 135.311 20.0181 135.364 19.9624C135.416 19.9067 135.488 19.8754 135.563 19.8754C135.637 19.8754 135.709 19.9067 135.761 19.9624C135.814 20.0181 135.844 20.0936 135.844 20.1723C135.844 20.251 135.873 20.3266 135.926 20.3822C135.979 20.4379 136.05 20.4692 136.125 20.4692H136.406C136.481 20.4692 136.552 20.4379 136.605 20.3822C136.658 20.3266 136.688 20.251 136.688 20.1723V20.1503C136.688 19.9871 136.748 19.8276 136.864 19.7193C137.162 19.4417 137.401 19.1003 137.565 18.7177C137.728 18.3351 137.813 17.9202 137.813 17.5004C137.813 15.7465 136.372 14.3479 134.672 14.5513ZM133.875 18.3911C133.651 18.3911 133.437 18.2972 133.278 18.1302C133.12 17.9632 133.031 17.7366 133.031 17.5004C133.031 17.2642 133.12 17.0377 133.278 16.8707C133.437 16.7036 133.651 16.6098 133.875 16.6098C134.099 16.6098 134.313 16.7036 134.472 16.8707C134.63 17.0377 134.719 17.2642 134.719 17.5004C134.719 17.7366 134.63 17.9632 134.472 18.1302C134.313 18.2972 134.099 18.3911 133.875 18.3911ZM135 18.9848C134.925 18.9848 134.854 18.9535 134.801 18.8979C134.748 18.8422 134.719 18.7667 134.719 18.6879C134.719 18.6092 134.748 18.5337 134.801 18.478C134.854 18.4223 134.925 18.3911 135 18.3911C135.075 18.3911 135.146 18.4223 135.199 18.478C135.252 18.5337 135.281 18.6092 135.281 18.6879C135.281 18.7667 135.252 18.8422 135.199 18.8979C135.146 18.9535 135.075 18.9848 135 18.9848ZM136.125 18.3911C135.901 18.3911 135.687 18.2972 135.528 18.1302C135.37 17.9632 135.281 17.7366 135.281 17.5004C135.281 17.2642 135.37 17.0377 135.528 16.8707C135.687 16.7036 135.901 16.6098 136.125 16.6098C136.349 16.6098 136.563 16.7036 136.722 16.8707C136.88 17.0377 136.969 17.2642 136.969 17.5004C136.969 17.7366 136.88 17.9632 136.722 18.1302C136.563 18.2972 136.349 18.3911 136.125 18.3911ZM132.42 19.8036L131.962 20.2875C131.938 20.1862 131.888 20.0937 131.818 20.0194C131.74 19.9364 131.639 19.8798 131.53 19.8569C131.421 19.8339 131.308 19.8457 131.205 19.8906C131.102 19.9356 131.015 20.0117 130.953 20.1093C130.891 20.207 130.858 20.3218 130.858 20.4392C130.858 20.5566 130.891 20.6714 130.953 20.7691C131.015 20.8667 131.102 20.9428 131.205 20.9878C131.308 21.0327 131.421 21.0445 131.53 21.0215C131.639 20.9986 131.74 20.942 131.818 20.859C131.74 20.942 131.686 21.0478 131.664 21.163C131.643 21.2782 131.654 21.3976 131.696 21.5061C131.739 21.6146 131.811 21.7073 131.903 21.7726C131.996 21.8378 132.105 21.8726 132.216 21.8726C132.327 21.8726 132.436 21.8378 132.528 21.7726C132.621 21.7073 132.693 21.6146 132.736 21.5061C132.778 21.3976 132.789 21.2782 132.768 21.163C132.746 21.0478 132.692 20.942 132.614 20.859C132.543 20.7854 132.456 20.7331 132.36 20.7073L132.761 20.2836C132.756 20.2471 132.75 20.2106 132.75 20.1723C132.631 20.0577 132.522 19.933 132.42 19.8036ZM137.575 15.2023L138.038 14.7131C138.063 14.811 138.109 14.9043 138.182 14.9812C138.261 15.0642 138.361 15.1208 138.47 15.1437C138.579 15.1666 138.692 15.1549 138.795 15.1099C138.898 15.065 138.986 14.9889 139.048 14.8913C139.109 14.7936 139.142 14.6788 139.142 14.5614C139.142 14.4439 139.109 14.3291 139.048 14.2315C138.986 14.1338 138.898 14.0577 138.795 14.0128C138.692 13.9679 138.579 13.9561 138.47 13.979C138.361 14.002 138.261 14.0585 138.182 14.1416C138.261 14.0586 138.314 13.9528 138.336 13.8376C138.358 13.7224 138.347 13.603 138.304 13.4945C138.262 13.386 138.189 13.2933 138.097 13.228C138.004 13.1628 137.896 13.1279 137.784 13.1279C137.673 13.1279 137.564 13.1628 137.472 13.228C137.379 13.2933 137.307 13.386 137.265 13.4945C137.222 13.603 137.211 13.7224 137.233 13.8376C137.254 13.9528 137.308 14.0586 137.387 14.1416C137.46 14.2185 137.548 14.2675 137.641 14.2933L137.177 14.7825C137.32 14.9108 137.453 15.0512 137.575 15.2023ZM132.825 14.7852L132.359 14.2933C132.452 14.2675 132.541 14.2185 132.613 14.1416C132.692 14.0586 132.746 13.9528 132.767 13.8376C132.789 13.7224 132.778 13.603 132.735 13.4945C132.693 13.386 132.621 13.2933 132.528 13.228C132.436 13.1628 132.327 13.1279 132.216 13.1279C132.104 13.1279 131.996 13.1628 131.903 13.228C131.811 13.2933 131.739 13.386 131.696 13.4945C131.653 13.603 131.642 13.7224 131.664 13.8376C131.686 13.9528 131.739 14.0586 131.818 14.1416C131.739 14.0585 131.639 14.002 131.53 13.979C131.421 13.9561 131.308 13.9679 131.205 14.0128C131.102 14.0577 131.014 14.1338 130.952 14.2315C130.891 14.3291 130.858 14.4439 130.858 14.5614C130.858 14.6788 130.891 14.7936 130.952 14.8913C131.014 14.9889 131.102 15.065 131.205 15.1099C131.308 15.1549 131.421 15.1666 131.53 15.1437C131.639 15.1208 131.739 15.0642 131.818 14.9812C131.891 14.9043 131.937 14.811 131.962 14.7131L132.428 15.205C132.549 15.0539 132.682 14.9135 132.825 14.7852ZM138.577 19.8457C138.453 19.8458 138.333 19.8892 138.236 19.9692C138.138 20.0492 138.069 20.1612 138.038 20.2875L137.572 19.7953C137.468 19.9247 137.359 20.0494 137.237 20.1634C137.238 20.2011 137.232 20.2367 137.229 20.2729L137.641 20.7073C137.548 20.7331 137.46 20.7821 137.387 20.859C137.281 20.9703 137.222 21.1213 137.222 21.2788C137.222 21.4362 137.281 21.5872 137.387 21.6985C137.435 21.7496 137.491 21.7876 137.55 21.8161L138.513 19.9526C138.532 19.9155 138.554 19.8805 138.577 19.8457Z" fill="#F0F0F0"/>
<path d="M139.006 20.2372L136.579 24.9347C136.374 25.3304 136.646 25.8128 137.073 25.8128H141.928C142.354 25.8128 142.626 25.3304 142.421 24.9347L139.994 20.2372C139.781 19.8246 139.219 19.8246 139.006 20.2372Z" fill="#FAB400"/>
<path d="M136.963 24.9339L139.391 20.2365C139.456 20.1102 139.564 20.0142 139.692 19.9669C139.447 19.8734 139.149 19.9601 139.006 20.2365L136.579 24.9339C136.374 25.3296 136.646 25.8121 137.072 25.8121H137.457C137.03 25.8121 136.759 25.3296 136.963 24.9339Z" fill="#DC9600"/>
<path d="M139.5 23.4375C139.425 23.4375 139.354 23.4062 139.301 23.3505C139.248 23.2949 139.219 23.2194 139.219 23.1406V21.9531C139.219 21.8744 139.248 21.7989 139.301 21.7432C139.354 21.6875 139.425 21.6562 139.5 21.6562C139.575 21.6562 139.646 21.6875 139.699 21.7432C139.752 21.7989 139.781 21.8744 139.781 21.9531V23.1406C139.781 23.2194 139.752 23.2949 139.699 23.3505C139.646 23.4062 139.575 23.4375 139.5 23.4375ZM139.5 24.625C139.425 24.625 139.354 24.5937 139.301 24.538C139.248 24.4824 139.219 24.4069 139.219 24.3281C139.219 24.2494 139.248 24.1739 139.301 24.1182C139.354 24.0625 139.425 24.0312 139.5 24.0312C139.575 24.0312 139.646 24.0625 139.699 24.1182C139.752 24.1739 139.781 24.2494 139.781 24.3281C139.781 24.4069 139.752 24.4824 139.699 24.538C139.646 24.5937 139.575 24.625 139.5 24.625Z" fill="#F0F0F0"/>
<path d="M9.73175 40.8071C9.88509 40.5258 10.1795 40.351 10.5 40.351C10.8205 40.351 11.1149 40.5258 11.2683 40.8071L11.6314 41.473C12.0386 40.7124 12.2511 39.8628 12.25 39C12.25 36.1005 9.89953 33.75 7 33.75C4.10047 33.75 1.75 36.1005 1.75 39C1.75 41.8995 4.10047 44.25 7 44.25C7.30581 44.25 7.60484 44.2224 7.89644 44.1721L9.73175 40.8071Z" fill="#FA6450"/>
<path d="M2.625 39C2.625 36.2479 4.74294 33.9922 7.4375 33.7695C7.29199 33.757 7.14604 33.7505 7 33.75C4.10047 33.75 1.75 36.1005 1.75 39C1.75 41.8995 4.10047 44.25 7 44.25C7.14744 44.25 7.29312 44.2423 7.4375 44.2305C4.74294 44.0078 2.625 41.7521 2.625 39Z" fill="#DC4632"/>
<path d="M6.74442 36.8271C5.76814 36.9378 4.96883 37.7157 4.83408 38.6889C4.78247 39.0475 4.82103 39.4133 4.94626 39.7532C5.07149 40.0932 5.27946 40.3966 5.55136 40.636C5.64104 40.7154 5.68742 40.8331 5.68742 40.9529V40.9689C5.68742 41.0269 5.71047 41.0826 5.75149 41.1236C5.79251 41.1646 5.84815 41.1877 5.90617 41.1877H6.12492C6.18294 41.1877 6.23858 41.1646 6.2796 41.1236C6.32062 41.0826 6.34367 41.0269 6.34367 40.9689C6.34367 40.9109 6.36672 40.8553 6.40774 40.8142C6.44876 40.7732 6.5044 40.7502 6.56242 40.7502C6.62044 40.7502 6.67608 40.7732 6.7171 40.8142C6.75812 40.8553 6.78117 40.9109 6.78117 40.9689C6.78117 41.0269 6.80422 41.0826 6.84524 41.1236C6.88626 41.1646 6.9419 41.1877 6.99992 41.1877C7.05794 41.1877 7.11358 41.1646 7.1546 41.1236C7.19562 41.0826 7.21867 41.0269 7.21867 40.9689C7.21867 40.9109 7.24172 40.8553 7.28274 40.8142C7.32376 40.7732 7.3794 40.7502 7.43742 40.7502C7.49544 40.7502 7.55108 40.7732 7.5921 40.8142C7.63312 40.8553 7.65617 40.9109 7.65617 40.9689C7.65617 41.0269 7.67922 41.0826 7.72024 41.1236C7.76126 41.1646 7.8169 41.1877 7.87492 41.1877H8.09367C8.15169 41.1877 8.20733 41.1646 8.24835 41.1236C8.28937 41.0826 8.31242 41.0269 8.31242 40.9689V40.9527C8.31242 40.8324 8.35967 40.7149 8.44958 40.6351C8.68158 40.4306 8.86737 40.179 8.99459 39.8971C9.12181 39.6152 9.18755 39.3094 9.18742 39.0002C9.18742 37.7078 8.06676 36.6773 6.74442 36.8271ZM6.12492 39.6564C5.95087 39.6564 5.78395 39.5873 5.66088 39.4642C5.53781 39.3411 5.46867 39.1742 5.46867 39.0002C5.46867 38.8261 5.53781 38.6592 5.66088 38.5361C5.78395 38.4131 5.95087 38.3439 6.12492 38.3439C6.29897 38.3439 6.46589 38.4131 6.58896 38.5361C6.71203 38.6592 6.78117 38.8261 6.78117 39.0002C6.78117 39.1742 6.71203 39.3411 6.58896 39.4642C6.46589 39.5873 6.29897 39.6564 6.12492 39.6564ZM6.99992 40.0939C6.9419 40.0939 6.88626 40.0709 6.84524 40.0298C6.80422 39.9888 6.78117 39.9332 6.78117 39.8752C6.78117 39.8171 6.80422 39.7615 6.84524 39.7205C6.88626 39.6795 6.9419 39.6564 6.99992 39.6564C7.05794 39.6564 7.11358 39.6795 7.1546 39.7205C7.19562 39.7615 7.21867 39.8171 7.21867 39.8752C7.21867 39.9332 7.19562 39.9888 7.1546 40.0298C7.11358 40.0709 7.05794 40.0939 6.99992 40.0939ZM7.87492 39.6564C7.70087 39.6564 7.53395 39.5873 7.41088 39.4642C7.28781 39.3411 7.21867 39.1742 7.21867 39.0002C7.21867 38.8261 7.28781 38.6592 7.41088 38.5361C7.53395 38.4131 7.70087 38.3439 7.87492 38.3439C8.04897 38.3439 8.21589 38.4131 8.33896 38.5361C8.46203 38.6592 8.53117 38.8261 8.53117 39.0002C8.53117 39.1742 8.46203 39.3411 8.33896 39.4642C8.21589 39.5873 8.04897 39.6564 7.87492 39.6564ZM4.99354 40.6972L4.63698 41.0538C4.61797 40.9792 4.57938 40.911 4.5252 40.8563C4.46402 40.7951 4.38607 40.7534 4.3012 40.7365C4.21633 40.7196 4.12835 40.7283 4.0484 40.7614C3.96845 40.7945 3.90012 40.8505 3.85204 40.9225C3.80396 40.9944 3.7783 41.079 3.7783 41.1656C3.7783 41.2521 3.80396 41.3367 3.85204 41.4086C3.90012 41.4806 3.96845 41.5367 4.0484 41.5698C4.12835 41.6029 4.21633 41.6115 4.3012 41.5947C4.38607 41.5778 4.46402 41.5361 4.5252 41.4749C4.464 41.5361 4.42232 41.614 4.40543 41.6989C4.38854 41.7838 4.39719 41.8717 4.4303 41.9517C4.46341 42.0316 4.51949 42.1 4.59144 42.148C4.66339 42.1961 4.74798 42.2218 4.83451 42.2218C4.92105 42.2218 5.00564 42.1961 5.07759 42.148C5.14954 42.1 5.20561 42.0316 5.23872 41.9517C5.27183 41.8717 5.28049 41.7838 5.2636 41.6989C5.24671 41.614 5.20502 41.5361 5.14383 41.4749C5.08911 41.4207 5.02092 41.3821 4.94629 41.3631L5.25845 41.0509C5.25473 41.024 5.24992 40.9971 5.24992 40.9689C5.15695 40.8845 5.07273 40.7926 4.99354 40.6972ZM9.00258 37.3068L9.36308 36.9463C9.38211 37.0185 9.4182 37.0872 9.47486 37.1439C9.53604 37.2051 9.61399 37.2467 9.69886 37.2636C9.78373 37.2805 9.87171 37.2719 9.95166 37.2387C10.0316 37.2056 10.0999 37.1496 10.148 37.0776C10.1961 37.0057 10.2218 36.9211 10.2218 36.8345C10.2218 36.748 10.1961 36.6634 10.148 36.5915C10.0999 36.5195 10.0316 36.4634 9.95166 36.4303C9.87171 36.3972 9.78373 36.3886 9.69886 36.4055C9.61399 36.4223 9.53604 36.464 9.47486 36.5252C9.53606 36.464 9.57774 36.3861 9.59463 36.3012C9.61152 36.2164 9.60286 36.1284 9.56975 36.0484C9.53665 35.9685 9.48057 35.9001 9.40862 35.8521C9.33667 35.804 9.25208 35.7783 9.16554 35.7783C9.07901 35.7783 8.99442 35.804 8.92247 35.8521C8.85052 35.9001 8.79444 35.9685 8.76133 36.0484C8.72823 36.1284 8.71957 36.2164 8.73646 36.3012C8.75335 36.3861 8.79503 36.464 8.85623 36.5252C8.91289 36.5819 8.98158 36.618 9.05376 36.637L8.69326 36.9975C8.80461 37.092 8.90808 37.1955 9.00258 37.3068ZM5.30854 36.9995L4.94608 36.637C5.01826 36.618 5.08695 36.5819 5.14361 36.5252C5.20481 36.464 5.24649 36.3861 5.26338 36.3012C5.28027 36.2164 5.27161 36.1284 5.2385 36.0484C5.2054 35.9685 5.14932 35.9001 5.07737 35.8521C5.00542 35.804 4.92083 35.7783 4.83429 35.7783C4.74776 35.7783 4.66317 35.804 4.59122 35.8521C4.51927 35.9001 4.46319 35.9685 4.43008 36.0484C4.39698 36.1284 4.38832 36.2164 4.40521 36.3012C4.4221 36.3861 4.46378 36.464 4.52498 36.5252C4.4638 36.464 4.38585 36.4223 4.30098 36.4055C4.21611 36.3886 4.12813 36.3972 4.04818 36.4303C3.96823 36.4634 3.8999 36.5195 3.85182 36.5915C3.80374 36.6634 3.77808 36.748 3.77808 36.8345C3.77808 36.9211 3.80374 37.0057 3.85182 37.0776C3.8999 37.1496 3.96823 37.2056 4.04818 37.2387C4.12813 37.2719 4.21611 37.2805 4.30098 37.2636C4.38585 37.2467 4.4638 37.2051 4.52498 37.1439C4.58164 37.0872 4.61773 37.0185 4.63676 36.9463L4.99923 37.3088C5.09373 37.1974 5.1972 37.094 5.30854 36.9995ZM9.78198 40.7283C9.68592 40.7283 9.59261 40.7603 9.51676 40.8193C9.44091 40.8782 9.38684 40.9607 9.36308 41.0538L9.00039 40.6911C8.91967 40.7865 8.83436 40.8784 8.73964 40.9624C8.74051 40.9901 8.73614 41.0164 8.73373 41.0431L9.05376 41.3631C8.98158 41.3821 8.91289 41.4182 8.85623 41.4749C8.77421 41.5569 8.72814 41.6682 8.72814 41.7842C8.72814 41.9002 8.77421 42.0115 8.85623 42.0935C8.89386 42.1311 8.93717 42.1591 8.98289 42.1801L9.73189 40.807C9.74676 40.7797 9.76426 40.7539 9.78198 40.7283Z" fill="#F0F0F0"/>
<path d="M10.1159 41.0171L8.22786 44.4784C8.06883 44.77 8.27992 45.1255 8.61199 45.1255H12.388C12.7201 45.1255 12.9312 44.77 12.7722 44.4784L10.8841 41.0171C10.7183 40.713 10.2817 40.713 10.1159 41.0171Z" fill="#FAB400"/>
<path d="M8.52679 44.4776L10.4148 41.0163C10.4657 40.9233 10.5494 40.8525 10.6495 40.8177C10.4584 40.7488 10.2271 40.8127 10.116 41.0163L8.22798 44.4776C8.06873 44.7692 8.27983 45.1247 8.61189 45.1247H8.9107C8.57864 45.1247 8.36776 44.7692 8.52679 44.4776Z" fill="#DC9600"/>
<path d="M10.5 43.375C10.442 43.375 10.3863 43.352 10.3453 43.3109C10.3043 43.2699 10.2812 43.2143 10.2812 43.1562V42.2812C10.2812 42.2232 10.3043 42.1676 10.3453 42.1266C10.3863 42.0855 10.442 42.0625 10.5 42.0625C10.558 42.0625 10.6137 42.0855 10.6547 42.1266C10.6957 42.1676 10.7188 42.2232 10.7188 42.2812V43.1562C10.7188 43.2143 10.6957 43.2699 10.6547 43.3109C10.6137 43.352 10.558 43.375 10.5 43.375ZM10.5 44.25C10.442 44.25 10.3863 44.227 10.3453 44.1859C10.3043 44.1449 10.2812 44.0893 10.2812 44.0312C10.2812 43.9732 10.3043 43.9176 10.3453 43.8766C10.3863 43.8355 10.442 43.8125 10.5 43.8125C10.558 43.8125 10.6137 43.8355 10.6547 43.8766C10.6957 43.9176 10.7188 43.9732 10.7188 44.0312C10.7188 44.0893 10.6957 44.1449 10.6547 44.1859C10.6137 44.227 10.558 44.25 10.5 44.25Z" fill="#F0F0F0"/>
<path d="M33.9879 14.4688C34.2398 14.0066 34.7235 13.7195 35.25 13.7195C35.7765 13.7195 36.2602 14.0066 36.5121 14.4688L37.1087 15.5627C37.7777 14.3132 38.1268 12.9174 38.125 11.5C38.125 6.73648 34.2635 2.875 29.5 2.875C24.7365 2.875 20.875 6.73648 20.875 11.5C20.875 16.2635 24.7365 20.125 29.5 20.125C30.0024 20.125 30.4937 20.0797 30.9727 19.9971L33.9879 14.4688Z" fill="#FA6450"/>
<path d="M22.3125 11.5C22.3125 6.9787 25.792 3.27283 30.2188 2.90698C29.9797 2.88653 29.7399 2.87586 29.5 2.875C24.7365 2.875 20.875 6.73648 20.875 11.5C20.875 16.2635 24.7365 20.125 29.5 20.125C29.7422 20.125 29.9816 20.1124 30.2188 20.093C25.792 19.7272 22.3125 16.0213 22.3125 11.5Z" fill="#DC4632"/>
<path d="M29.0803 7.93003C27.4764 8.11187 26.1633 9.38981 25.9419 10.9887C25.8571 11.5778 25.9205 12.1787 26.1262 12.7372C26.3319 13.2957 26.6736 13.7941 27.1203 14.1875C27.2676 14.3179 27.3438 14.5113 27.3438 14.7082V14.7344C27.3438 14.8297 27.3817 14.9212 27.4491 14.9886C27.5165 15.0559 27.6079 15.0938 27.7032 15.0938H28.0626C28.1579 15.0938 28.2493 15.0559 28.3167 14.9886C28.3841 14.9212 28.4219 14.8297 28.4219 14.7344C28.4219 14.6391 28.4598 14.5477 28.5272 14.4803C28.5946 14.4129 28.686 14.3751 28.7813 14.3751C28.8766 14.3751 28.968 14.4129 29.0354 14.4803C29.1028 14.5477 29.1407 14.6391 29.1407 14.7344C29.1407 14.8297 29.1785 14.9212 29.2459 14.9886C29.3133 15.0559 29.4047 15.0938 29.5001 15.0938C29.5954 15.0938 29.6868 15.0559 29.7542 14.9886C29.8216 14.9212 29.8594 14.8297 29.8594 14.7344C29.8594 14.6391 29.8973 14.5477 29.9647 14.4803C30.0321 14.4129 30.1235 14.3751 30.2188 14.3751C30.3141 14.3751 30.4055 14.4129 30.4729 14.4803C30.5403 14.5477 30.5782 14.6391 30.5782 14.7344C30.5782 14.8297 30.616 14.9212 30.6834 14.9886C30.7508 15.0559 30.8422 15.0938 30.9376 15.0938H31.2969C31.3922 15.0938 31.4837 15.0559 31.5511 14.9886C31.6184 14.9212 31.6563 14.8297 31.6563 14.7344V14.7078C31.6563 14.5102 31.7339 14.3172 31.8816 14.186C32.2628 13.85 32.568 13.4367 32.777 12.9736C32.986 12.5105 33.094 12.0082 33.0938 11.5001C33.0938 9.37687 31.2527 7.68386 29.0803 7.93003ZM28.0626 12.5782C27.7766 12.5782 27.5024 12.4646 27.3002 12.2624C27.098 12.0602 26.9844 11.786 26.9844 11.5001C26.9844 11.2141 27.098 10.9399 27.3002 10.7377C27.5024 10.5355 27.7766 10.4219 28.0626 10.4219C28.3485 10.4219 28.6227 10.5355 28.8249 10.7377C29.0271 10.9399 29.1407 11.2141 29.1407 11.5001C29.1407 11.786 29.0271 12.0602 28.8249 12.2624C28.6227 12.4646 28.3485 12.5782 28.0626 12.5782ZM29.5001 13.2969C29.4047 13.2969 29.3133 13.2591 29.2459 13.1917C29.1785 13.1243 29.1407 13.0329 29.1407 12.9376C29.1407 12.8422 29.1785 12.7508 29.2459 12.6834C29.3133 12.616 29.4047 12.5782 29.5001 12.5782C29.5954 12.5782 29.6868 12.616 29.7542 12.6834C29.8216 12.7508 29.8594 12.8422 29.8594 12.9376C29.8594 13.0329 29.8216 13.1243 29.7542 13.1917C29.6868 13.2591 29.5954 13.2969 29.5001 13.2969ZM30.9376 12.5782C30.6516 12.5782 30.3774 12.4646 30.1752 12.2624C29.973 12.0602 29.8594 11.786 29.8594 11.5001C29.8594 11.2141 29.973 10.9399 30.1752 10.7377C30.3774 10.5355 30.6516 10.4219 30.9376 10.4219C31.2235 10.4219 31.4977 10.5355 31.6999 10.7377C31.9021 10.9399 32.0157 11.2141 32.0157 11.5001C32.0157 11.786 31.9021 12.0602 31.6999 12.2624C31.4977 12.4646 31.2235 12.5782 30.9376 12.5782ZM26.2039 14.2881L25.6181 14.8739C25.5869 14.7513 25.5235 14.6393 25.4345 14.5494C25.3339 14.4488 25.2059 14.3803 25.0664 14.3526C24.927 14.3248 24.7825 14.3391 24.6511 14.3935C24.5198 14.4478 24.4075 14.54 24.3285 14.6582C24.2496 14.7764 24.2074 14.9153 24.2074 15.0575C24.2074 15.1997 24.2496 15.3386 24.3285 15.4569C24.4075 15.5751 24.5198 15.6672 24.6511 15.7216C24.7825 15.776 24.927 15.7902 25.0664 15.7624C25.2059 15.7347 25.3339 15.6662 25.4345 15.5657C25.3339 15.6662 25.2654 15.7942 25.2377 15.9337C25.2099 16.0731 25.2242 16.2176 25.2785 16.349C25.3329 16.4803 25.4251 16.5926 25.5433 16.6716C25.6615 16.7506 25.8004 16.7927 25.9426 16.7927C26.0848 16.7927 26.2237 16.7506 26.3419 16.6716C26.4601 16.5926 26.5523 16.4803 26.6067 16.349C26.6611 16.2176 26.6753 16.0731 26.6475 15.9337C26.6198 15.7942 26.5513 15.6662 26.4508 15.5657C26.3609 15.4767 26.2488 15.4133 26.1262 15.382L26.6391 14.8692C26.633 14.825 26.6251 14.7808 26.6251 14.7344C26.4723 14.5957 26.334 14.4448 26.2039 14.2881ZM32.7901 8.71814L33.3824 8.12589C33.4137 8.24448 33.4729 8.35733 33.566 8.4504C33.6665 8.55094 33.7946 8.61942 33.934 8.64717C34.0735 8.67492 34.218 8.6607 34.3493 8.60631C34.4807 8.55191 34.593 8.45979 34.6719 8.34159C34.7509 8.22338 34.7931 8.08441 34.7931 7.94225C34.7931 7.80008 34.7509 7.66111 34.6719 7.54291C34.593 7.42471 34.4807 7.33258 34.3493 7.27819C34.218 7.22379 34.0735 7.20957 33.934 7.23732C33.7946 7.26507 33.6665 7.33355 33.566 7.43409C33.6666 7.33358 33.735 7.20551 33.7628 7.06608C33.7905 6.92665 33.7763 6.78213 33.7219 6.65078C33.6675 6.51943 33.5754 6.40716 33.4572 6.32818C33.339 6.24919 33.2 6.20703 33.0579 6.20703C32.9157 6.20703 32.7767 6.24919 32.6585 6.32818C32.5403 6.40716 32.4482 6.51943 32.3938 6.65078C32.3394 6.78213 32.3252 6.92665 32.3529 7.06608C32.3807 7.20551 32.4492 7.33358 32.5497 7.43409C32.6428 7.52717 32.7556 7.58647 32.8742 7.61773L32.282 8.20998C32.4649 8.36523 32.6349 8.53522 32.7901 8.71814ZM26.7214 8.21322L26.1259 7.61773C26.2445 7.58647 26.3573 7.52717 26.4504 7.43409C26.5509 7.33358 26.6194 7.20551 26.6472 7.06608C26.6749 6.92665 26.6607 6.78213 26.6063 6.65078C26.5519 6.51943 26.4598 6.40716 26.3416 6.32818C26.2234 6.24919 26.0844 6.20703 25.9422 6.20703C25.8001 6.20703 25.6611 6.24919 25.5429 6.32818C25.4247 6.40716 25.3326 6.51943 25.2782 6.65078C25.2238 6.78213 25.2096 6.92665 25.2373 7.06608C25.2651 7.20551 25.3336 7.33358 25.4341 7.43409C25.3336 7.33355 25.2055 7.26507 25.0661 7.23732C24.9267 7.20957 24.7821 7.22379 24.6508 7.27819C24.5194 7.33258 24.4072 7.42471 24.3282 7.54291C24.2492 7.66111 24.207 7.80008 24.207 7.94225C24.207 8.08441 24.2492 8.22338 24.3282 8.34159C24.4072 8.45979 24.5194 8.55191 24.6508 8.60631C24.7821 8.6607 24.9267 8.67492 25.0661 8.64717C25.2055 8.61942 25.3336 8.55094 25.4341 8.4504C25.5272 8.35733 25.5865 8.24448 25.6177 8.12589L26.2132 8.72137C26.3685 8.53845 26.5385 8.36847 26.7214 8.21322ZM34.0706 14.3391C33.9128 14.3392 33.7595 14.3918 33.6349 14.4886C33.5103 14.5854 33.4214 14.721 33.3824 14.8739L32.7865 14.278C32.6539 14.4347 32.5138 14.5857 32.3582 14.7237C32.3596 14.7693 32.3524 14.8124 32.3485 14.8563L32.8742 15.382C32.7556 15.4133 32.6428 15.4726 32.5497 15.5657C32.415 15.7005 32.3393 15.8832 32.3393 16.0738C32.3393 16.2644 32.415 16.4472 32.5497 16.582C32.6115 16.6438 32.6827 16.6898 32.7578 16.7243L33.9883 14.4685C34.0127 14.4236 34.0415 14.3812 34.0706 14.3391Z" fill="#F0F0F0"/>
<path d="M34.619 14.8131L31.5172 20.4995C31.256 20.9786 31.6028 21.5625 32.1483 21.5625H38.3518C38.8974 21.5625 39.2442 20.9786 38.9829 20.4995L35.8811 14.8131C35.6087 14.3136 34.8914 14.3136 34.619 14.8131Z" fill="#FAB400"/>
<path d="M32.0083 20.4999L35.1101 14.8135C35.1937 14.6607 35.3312 14.5444 35.4957 14.4872C35.1816 14.374 34.8018 14.479 34.6192 14.8135L31.5174 20.4999C31.2558 20.979 31.6026 21.563 32.1481 21.563H32.639C32.0935 21.563 31.7471 20.979 32.0083 20.4999Z" fill="#DC9600"/>
<path d="M35.25 18.6875C35.1547 18.6875 35.0633 18.6496 34.9959 18.5822C34.9285 18.5148 34.8906 18.4234 34.8906 18.3281V16.8906C34.8906 16.7953 34.9285 16.7039 34.9959 16.6365C35.0633 16.5691 35.1547 16.5312 35.25 16.5312C35.3453 16.5312 35.4367 16.5691 35.5041 16.6365C35.5715 16.7039 35.6094 16.7953 35.6094 16.8906V18.3281C35.6094 18.4234 35.5715 18.5148 35.5041 18.5822C35.4367 18.6496 35.3453 18.6875 35.25 18.6875ZM35.25 20.125C35.1547 20.125 35.0633 20.0871 34.9959 20.0197C34.9285 19.9523 34.8906 19.8609 34.8906 19.7656C34.8906 19.6703 34.9285 19.5789 34.9959 19.5115C35.0633 19.4441 35.1547 19.4062 35.25 19.4062C35.3453 19.4062 35.4367 19.4441 35.5041 19.5115C35.5715 19.5789 35.6094 19.6703 35.6094 19.7656C35.6094 19.8609 35.5715 19.9523 35.5041 20.0197C35.4367 20.0871 35.3453 20.125 35.25 20.125Z" fill="#F0F0F0"/>
</svg>
