<svg width="131" height="36" viewBox="0 0 131 36" fill="none" xmlns="http://www.w3.org/2000/svg">
<path d="M120.161 23.8301C119.989 23.526 119.614 23.308 119.186 23.2631L114.545 22.7753C113.904 22.7079 113.344 23.043 113.294 23.5235C113.243 24.0041 113.722 24.4483 114.362 24.5157L116.835 24.7756L112.99 28.2826C112.725 28.5246 112.667 28.8656 112.839 29.1698C113.011 29.474 113.386 29.6919 113.814 29.7369L118.455 30.2247C119.096 30.2921 119.656 29.957 119.706 29.4765C119.757 28.9959 119.278 28.5517 118.638 28.4843L116.164 28.2244L120.01 24.7174C120.275 24.4754 120.333 24.1344 120.161 23.8301Z" fill="#FDC748"/>
<path d="M105.3 11.8761C105.201 11.6472 104.951 11.4644 104.65 11.4005L101.39 10.7074C100.939 10.6117 100.516 10.8079 100.445 11.1455C100.373 11.4831 100.68 11.8344 101.13 11.9301L102.867 12.2994L99.8739 14.5036C99.6672 14.6557 99.6004 14.8936 99.7 15.1226C99.7995 15.3515 100.049 15.5343 100.35 15.5982L103.611 16.2912C104.061 16.3869 104.484 16.1907 104.556 15.8531C104.627 15.5156 104.321 15.1642 103.87 15.0685L102.133 14.6992L105.126 12.4951C105.333 12.343 105.4 12.105 105.3 11.8761Z" fill="#FDC748"/>
<path d="M130.094 6.00541C129.833 5.5798 129.287 5.28727 128.674 5.24439L122.023 4.77935C121.105 4.71514 120.322 5.22147 120.274 5.91004C120.225 6.59861 120.931 7.20905 121.849 7.27326L125.393 7.52107L120.078 12.7196C119.711 13.0784 119.645 13.5682 119.906 13.994C120.167 14.4196 120.713 14.7121 121.326 14.755L127.976 15.22C128.895 15.2842 129.678 14.7779 129.726 14.0893C129.774 13.4008 129.069 12.7903 128.151 12.7261L124.607 12.4783L129.922 7.27976C130.289 6.92098 130.355 6.43115 130.094 6.00541Z" fill="#FDC748"/>
<path d="M8.1611 19.8301C7.98895 19.526 7.6143 19.308 7.18639 19.2631L2.54529 18.7753C1.90447 18.7079 1.34405 19.043 1.29355 19.5235C1.24304 20.0041 1.72154 20.4483 2.36236 20.5157L4.83549 20.7756L0.990433 24.2826C0.72498 24.5246 0.666728 24.8656 0.838872 25.1698C1.01103 25.474 1.38568 25.6919 1.81359 25.7369L6.45469 26.2247C7.09551 26.2921 7.65592 25.957 7.70643 25.4765C7.75693 24.9959 7.27843 24.5517 6.63761 24.4843L4.16449 24.2244L8.00954 20.7174C8.27499 20.4754 8.33325 20.1344 8.1611 19.8301Z" fill="#FDC748"/>
<path d="M28.3001 30.8761C28.2006 30.6472 27.9507 30.4644 27.6501 30.4005L24.3896 29.7074C23.9394 29.6117 23.5163 29.8079 23.4445 30.1455C23.3728 30.4831 23.6795 30.8344 24.1297 30.9301L25.8671 31.2994L22.8739 33.5036C22.6672 33.6557 22.6004 33.8936 22.7 34.1226C22.7995 34.3515 23.0494 34.5343 23.35 34.5982L26.6105 35.2912C27.0607 35.3869 27.4838 35.1907 27.5556 34.8531C27.6273 34.5156 27.3206 34.1642 26.8704 34.0685L25.133 33.6992L28.1262 31.4951C28.3329 31.343 28.3997 31.105 28.3001 30.8761Z" fill="#FDC748"/>
<path d="M21.0937 2.00541C20.8328 1.5798 20.287 1.28727 19.6739 1.24439L13.0234 0.779347C12.1052 0.715136 11.3218 1.22147 11.2736 1.91004C11.2255 2.59861 11.9308 3.20905 12.8491 3.27326L16.3929 3.52107L11.0782 8.71962C10.7112 9.0784 10.6451 9.56822 10.906 9.99396C11.167 10.4196 11.7127 10.7121 12.3259 10.755L18.9763 11.22C19.8946 11.2842 20.678 10.7779 20.7261 10.0893C20.7743 9.40077 20.069 8.79033 19.1507 8.72612L15.6069 8.47831L20.9216 3.27976C21.2885 2.92098 21.3547 2.43115 21.0937 2.00541Z" fill="#FDC748"/>
</svg>
